<svg width="18" height="21" viewBox="0 0 18 21" fill="none" xmlns="http://www.w3.org/2000/svg">
<path d="M6.5598 2.7592C7.09893 0.0988083 10.9011 0.0988083 11.4402 2.7592C11.7375 4.22634 13.253 5.1013 14.6722 4.62521C17.2458 3.76192 19.1468 7.05466 17.1124 8.85176C15.9905 9.84281 15.9905 11.5927 17.1124 12.5838C19.1468 14.3809 17.2458 17.6736 14.6722 16.8103C13.253 16.3342 11.7375 17.2092 11.4402 18.6763C10.9011 21.3367 7.09893 21.3367 6.5598 18.6763C6.26249 17.2092 4.74701 16.3342 3.32777 16.8103C0.75424 17.6736 -1.14683 14.3809 0.887573 12.5838C2.0095 11.5927 2.0095 9.84281 0.887573 8.85176C-1.14683 7.05466 0.754241 3.76192 3.32777 4.62521C4.74701 5.1013 6.26249 4.22634 6.5598 2.7592Z" fill="#A2DFF5"/>
</svg>
